<?xml version="1.0" encoding="UTF-8" standalone="no"?><!DOCTYPE svg PUBLIC "-//W3C//DTD SVG 1.1//EN" "http://www.w3.org/Graphics/SVG/1.1/DTD/svg11.dtd"><svg width="100%" height="100%" viewBox="0 0 164 164" version="1.1" xmlns="http://www.w3.org/2000/svg" xmlns:xlink="http://www.w3.org/1999/xlink" xml:space="preserve" xmlns:serif="http://www.serif.com/" style="fill-rule:evenodd;clip-rule:evenodd;stroke-linejoin:round;stroke-miterlimit:2;"><rect id="Favicon" x="0" y="0" width="164" height="164" style="fill:none;"/><g id="Odiance-Logo-Group" serif:id="Odiance Logo Group"><g id="Odiance-Logo" serif:id="Odiance Logo"><circle cx="82" cy="82" r="80.6" style="fill:#800020;"/><g><circle cx="82.252" cy="12.821" r="8.265" style="fill:#fff;"/><path d="M76.598,63.518l0.058,-20.961l-18.497,-5.341c-0.28,-0.08 -0.517,-0.266 -0.664,-0.517c-1.235,-2.118 -7.11,-12.195 -8.495,-14.571c-0.048,-0.082 -0.041,-0.185 0.017,-0.26c0.059,-0.074 0.157,-0.106 0.248,-0.079l27.427,8.08l0.023,-8.244c-0,-0 2.647,1.615 5.537,1.615c2.89,-0 5.708,-1.584 5.708,-1.584l-0.023,8.177l27.304,-8.044c0.091,-0.027 0.189,0.005 0.248,0.079c0.058,0.075 0.065,0.178 0.017,0.26c-1.385,2.376 -7.26,12.453 -8.495,14.571c-0.147,0.251 -0.384,0.437 -0.664,0.517l-18.445,5.326l-0.059,21.111c-1.843,-0.587 -3.806,-0.904 -5.843,-0.904c-1.875,-0 -3.688,0.268 -5.402,0.769Z" style="fill:#fff;"/></g><g><path d="M15.142,43.206c2.281,-3.951 7.34,-5.306 11.291,-3.025c3.95,2.281 5.306,7.34 3.025,11.29c-2.281,3.951 -7.34,5.307 -11.291,3.026c-3.95,-2.281 -5.306,-7.34 -3.025,-11.291Z" style="fill:#fff;"/><path d="M63.377,77.584l-18.123,-10.532l-13.874,13.349c-0.21,0.202 -0.489,0.315 -0.78,0.316c-2.452,0.011 -14.116,0.06 -16.867,0.072c-0.095,0 -0.18,-0.057 -0.216,-0.145c-0.035,-0.088 -0.013,-0.189 0.056,-0.254l20.71,-19.712l-7.128,-4.142c-0,-0 2.722,-1.485 4.167,-3.988c1.445,-2.503 1.483,-5.736 1.483,-5.736l7.07,4.109l6.686,-27.668c0.022,-0.092 0.098,-0.161 0.192,-0.175c0.094,-0.013 0.186,0.032 0.234,0.114c1.365,2.389 7.154,12.515 8.371,14.643c0.144,0.253 0.186,0.552 0.116,0.834l-4.611,18.637l18.253,10.606c-1.429,1.303 -2.685,2.844 -3.704,4.608c-0.938,1.624 -1.611,3.329 -2.035,5.064Z" style="fill:#fff;"/></g><g><path d="M15.059,120.65c-2.281,-3.951 -0.926,-9.01 3.025,-11.291c3.951,-2.281 9.01,-0.925 11.291,3.026c2.281,3.95 0.925,9.009 -3.026,11.29c-3.95,2.281 -9.009,0.925 -11.29,-3.025Z" style="fill:#fff;"/><path d="M68.949,96.066l-18.183,10.43l4.624,18.689c0.07,0.282 0.028,0.581 -0.116,0.834c-1.217,2.128 -7.006,12.254 -8.372,14.642c-0.047,0.083 -0.139,0.128 -0.233,0.115c-0.094,-0.014 -0.17,-0.083 -0.193,-0.175l-6.716,-27.792l-7.151,4.102c0,0 0.075,-3.1 -1.37,-5.603c-1.445,-2.503 -4.225,-4.151 -4.225,-4.151l7.092,-4.069l-20.618,-19.624c-0.068,-0.065 -0.09,-0.166 -0.055,-0.254c0.036,-0.088 0.121,-0.145 0.216,-0.145c2.751,0.012 14.415,0.061 16.867,0.071c0.291,0.002 0.57,0.115 0.78,0.317l13.834,13.311l18.312,-10.504c0.413,1.889 1.12,3.748 2.139,5.512c0.937,1.624 2.077,3.06 3.368,4.294Z" style="fill:#fff;"/></g><g><circle cx="82.085" cy="151.179" r="8.265" style="fill:#fff;"/><path d="M87.74,100.482l-0.059,20.961l18.497,5.341c0.28,0.08 0.518,0.266 0.664,0.517c1.235,2.118 7.11,12.195 8.496,14.571c0.047,0.082 0.04,0.185 -0.018,0.26c-0.059,0.074 -0.157,0.106 -0.248,0.079l-27.426,-8.08l-0.023,8.244c-0,0 -2.647,-1.615 -5.538,-1.615c-2.89,0 -5.708,1.584 -5.708,1.584l0.023,-8.177l-27.304,8.044c-0.091,0.027 -0.189,-0.005 -0.247,-0.079c-0.059,-0.075 -0.066,-0.178 -0.018,-0.26c1.386,-2.376 7.261,-12.453 8.495,-14.571c0.147,-0.251 0.385,-0.437 0.664,-0.517l18.446,-5.326l0.059,-21.111c1.842,0.587 3.806,0.904 5.842,0.904c1.876,0 3.689,-0.268 5.403,-0.769Z" style="fill:#fff;"/></g><g><path d="M149.195,120.794c-2.28,3.951 -7.34,5.306 -11.29,3.025c-3.951,-2.281 -5.306,-7.34 -3.026,-11.29c2.281,-3.951 7.341,-5.307 11.291,-3.026c3.951,2.281 5.306,7.34 3.025,11.291Z" style="fill:#fff;"/><path d="M100.96,86.416l18.124,10.532l13.873,-13.349c0.21,-0.202 0.489,-0.315 0.78,-0.316c2.452,-0.011 14.116,-0.06 16.867,-0.072c0.095,-0 0.18,0.057 0.216,0.145c0.035,0.088 0.013,0.189 -0.055,0.254l-20.711,19.712l7.128,4.142c0,0 -2.722,1.485 -4.167,3.988c-1.445,2.503 -1.483,5.736 -1.483,5.736l-7.069,-4.109l-6.686,27.668c-0.023,0.092 -0.099,0.161 -0.193,0.175c-0.094,0.013 -0.186,-0.032 -0.233,-0.114c-1.366,-2.389 -7.155,-12.515 -8.372,-14.643c-0.144,-0.253 -0.186,-0.552 -0.116,-0.834l4.611,-18.637l-18.253,-10.606c1.43,-1.303 2.686,-2.844 3.704,-4.608c0.938,-1.624 1.612,-3.329 2.035,-5.064Z" style="fill:#fff;"/></g><g><path d="M149.279,43.35c2.281,3.951 0.925,9.01 -3.026,11.291c-3.95,2.281 -9.009,0.925 -11.29,-3.026c-2.281,-3.95 -0.926,-9.009 3.025,-11.29c3.951,-2.281 9.01,-0.925 11.291,3.025Z" style="fill:#fff;"/><path d="M95.389,67.934l18.182,-10.43l-4.623,-18.689c-0.07,-0.282 -0.029,-0.581 0.116,-0.834c1.217,-2.128 7.006,-12.254 8.371,-14.642c0.047,-0.083 0.14,-0.128 0.234,-0.115c0.093,0.014 0.17,0.083 0.192,0.175l6.716,27.792l7.151,-4.102c0,-0 -0.075,3.1 1.37,5.603c1.445,2.503 4.226,4.151 4.226,4.151l-7.093,4.069l20.618,19.624c0.069,0.065 0.091,0.166 0.055,0.254c-0.035,0.088 -0.121,0.145 -0.215,0.145c-2.752,-0.012 -14.416,-0.061 -16.867,-0.071c-0.291,-0.002 -0.571,-0.115 -0.78,-0.317l-13.835,-13.311l-18.312,10.504c-0.413,-1.889 -1.12,-3.748 -2.138,-5.512c-0.938,-1.624 -2.077,-3.06 -3.368,-4.294Z" style="fill:#fff;"/></g></g></g></svg>