<?xml version="1.0" encoding="UTF-8" standalone="no"?>
<!DOCTYPE svg PUBLIC "-//W3C//DTD SVG 1.1//EN" "http://www.w3.org/Graphics/SVG/1.1/DTD/svg11.dtd">
<svg width="100%" height="100%" viewBox="0 0 838 191" version="1.1" xmlns="http://www.w3.org/2000/svg" xmlns:xlink="http://www.w3.org/1999/xlink" xml:space="preserve" xmlns:serif="http://www.serif.com/" style="fill-rule:evenodd;clip-rule:evenodd;stroke-linejoin:round;stroke-miterlimit:2;">
    <g transform="matrix(1,0,0,1,-355.481,0)">
        <g id="Artboard1" transform="matrix(0.734087,0,0,0.511172,316.94,243.846)">
            <rect x="52.502" y="-477.033" width="1141.28" height="372.699" style="fill:none;"/>
            <g id="Odiance-Logo-Group" serif:id="Odiance Logo Group" transform="matrix(1.22069,0,0,3.26049,-300.082,-16609)">
                <g id="Odiance-Logo" serif:id="Odiance Logo" transform="matrix(0.397374,0,0,0.213649,-2131.03,3851.16)">
                    <g transform="matrix(1,0,0,1,-26.3111,-256)">
                        <circle cx="6435.78" cy="5656" r="238.911" style="fill:rgb(128,0,32);"/>
                    </g>
                    <g transform="matrix(1,0,0,1,-25.3111,-252.13)">
                        <g transform="matrix(1.4414,0,0,1.4414,-2842.48,-2392.45)">
                            <circle cx="6436.79" cy="5438.81" r="16.997" style="fill:white;"/>
                        </g>
                        <g transform="matrix(0.447352,0,0,0.447352,4576.63,5335.93)">
                            <path d="M4117.87,584.359L4118.26,445.467L3995.69,410.082C3993.84,409.547 3992.26,408.32 3991.29,406.654C3983.11,392.62 3944.18,325.852 3935,310.104C3934.69,309.562 3934.73,308.881 3935.12,308.386C3935.51,307.892 3936.16,307.684 3936.76,307.861L4118.49,361.397L4118.64,306.771C4118.64,306.771 4136.18,317.473 4155.33,317.473C4174.48,317.473 4193.15,306.979 4193.15,306.979L4193,361.157L4373.92,307.861C4374.52,307.684 4375.17,307.892 4375.56,308.386C4375.95,308.881 4375.99,309.562 4375.68,310.104C4366.49,325.852 4327.57,392.62 4319.39,406.654C4318.41,408.32 4316.84,409.547 4314.99,410.082L4192.77,445.368L4192.38,585.249C4180.17,581.359 4167.16,579.258 4153.66,579.258C4141.24,579.258 4129.22,581.039 4117.87,584.359Z" style="fill:white;"/>
                        </g>
                    </g>
                    <g transform="matrix(0.5,-0.866025,0.866025,0.5,-1702.56,8147.05)">
                        <g transform="matrix(1.4414,0,0,1.4414,-2842.48,-2392.45)">
                            <circle cx="6436.79" cy="5438.81" r="16.997" style="fill:white;"/>
                        </g>
                        <g transform="matrix(0.447352,0,0,0.447352,4576.63,5335.93)">
                            <path d="M4117.87,584.359L4118.26,445.467L3995.69,410.082C3993.84,409.547 3992.26,408.32 3991.29,406.654C3983.11,392.62 3944.18,325.852 3935,310.104C3934.69,309.562 3934.73,308.881 3935.12,308.386C3935.51,307.892 3936.16,307.684 3936.76,307.861L4118.49,361.397L4118.64,306.771C4118.64,306.771 4136.18,317.473 4155.33,317.473C4174.48,317.473 4193.15,306.979 4193.15,306.979L4193,361.157L4373.92,307.861C4374.52,307.684 4375.17,307.892 4375.56,308.386C4375.95,308.881 4375.99,309.562 4375.68,310.104C4366.49,325.852 4327.57,392.62 4319.39,406.654C4318.41,408.32 4316.84,409.547 4314.99,410.082L4192.77,445.368L4192.38,585.249C4180.17,581.359 4167.16,579.258 4153.66,579.258C4141.24,579.258 4129.22,581.039 4117.87,584.359Z" style="fill:white;"/>
                        </g>
                    </g>
                    <g transform="matrix(-0.5,-0.866025,0.866025,-0.5,4732.73,13799.2)">
                        <g transform="matrix(1.4414,0,0,1.4414,-2842.48,-2392.45)">
                            <circle cx="6436.79" cy="5438.81" r="16.997" style="fill:white;"/>
                        </g>
                        <g transform="matrix(0.447352,0,0,0.447352,4576.63,5335.93)">
                            <path d="M4117.87,584.359L4118.26,445.467L3995.69,410.082C3993.84,409.547 3992.26,408.32 3991.29,406.654C3983.11,392.62 3944.18,325.852 3935,310.104C3934.69,309.562 3934.73,308.881 3935.12,308.386C3935.51,307.892 3936.16,307.684 3936.76,307.861L4118.49,361.397L4118.64,306.771C4118.64,306.771 4136.18,317.473 4155.33,317.473C4174.48,317.473 4193.15,306.979 4193.15,306.979L4193,361.157L4373.92,307.861C4374.52,307.684 4375.17,307.892 4375.56,308.386C4375.95,308.881 4375.99,309.562 4375.68,310.104C4366.49,325.852 4327.57,392.62 4319.39,406.654C4318.41,408.32 4316.84,409.547 4314.99,410.082L4192.77,445.368L4192.38,585.249C4180.17,581.359 4167.16,579.258 4153.66,579.258C4141.24,579.258 4129.22,581.039 4117.87,584.359Z" style="fill:white;"/>
                        </g>
                    </g>
                    <g transform="matrix(-1,-3.88578e-16,3.88578e-16,-1,12845.3,11052.1)">
                        <g transform="matrix(1.4414,0,0,1.4414,-2842.48,-2392.45)">
                            <circle cx="6436.79" cy="5438.81" r="16.997" style="fill:white;"/>
                        </g>
                        <g transform="matrix(0.447352,0,0,0.447352,4576.63,5335.93)">
                            <path d="M4117.87,584.359L4118.26,445.467L3995.69,410.082C3993.84,409.547 3992.26,408.32 3991.29,406.654C3983.11,392.62 3944.18,325.852 3935,310.104C3934.69,309.562 3934.73,308.881 3935.12,308.386C3935.51,307.892 3936.16,307.684 3936.76,307.861L4118.49,361.397L4118.64,306.771C4118.64,306.771 4136.18,317.473 4155.33,317.473C4174.48,317.473 4193.15,306.979 4193.15,306.979L4193,361.157L4373.92,307.861C4374.52,307.684 4375.17,307.892 4375.56,308.386C4375.95,308.881 4375.99,309.562 4375.68,310.104C4366.49,325.852 4327.57,392.62 4319.39,406.654C4318.41,408.32 4316.84,409.547 4314.99,410.082L4192.77,445.368L4192.38,585.249C4180.17,581.359 4167.16,579.258 4153.66,579.258C4141.24,579.258 4129.22,581.039 4117.87,584.359Z" style="fill:white;"/>
                        </g>
                    </g>
                    <g transform="matrix(-0.5,0.866025,-0.866025,-0.5,14522.5,2652.95)">
                        <g transform="matrix(1.4414,0,0,1.4414,-2842.48,-2392.45)">
                            <circle cx="6436.79" cy="5438.81" r="16.997" style="fill:white;"/>
                        </g>
                        <g transform="matrix(0.447352,0,0,0.447352,4576.63,5335.93)">
                            <path d="M4117.87,584.359L4118.26,445.467L3995.69,410.082C3993.84,409.547 3992.26,408.32 3991.29,406.654C3983.11,392.62 3944.18,325.852 3935,310.104C3934.69,309.562 3934.73,308.881 3935.12,308.386C3935.51,307.892 3936.16,307.684 3936.76,307.861L4118.49,361.397L4118.64,306.771C4118.64,306.771 4136.18,317.473 4155.33,317.473C4174.48,317.473 4193.15,306.979 4193.15,306.979L4193,361.157L4373.92,307.861C4374.52,307.684 4375.17,307.892 4375.56,308.386C4375.95,308.881 4375.99,309.562 4375.68,310.104C4366.49,325.852 4327.57,392.62 4319.39,406.654C4318.41,408.32 4316.84,409.547 4314.99,410.082L4192.77,445.368L4192.38,585.249C4180.17,581.359 4167.16,579.258 4153.66,579.258C4141.24,579.258 4129.22,581.039 4117.87,584.359Z" style="fill:white;"/>
                        </g>
                    </g>
                    <g transform="matrix(0.5,0.866025,-0.866025,0.5,8087.22,-2999.18)">
                        <g transform="matrix(1.4414,0,0,1.4414,-2842.48,-2392.45)">
                            <circle cx="6436.79" cy="5438.81" r="16.997" style="fill:white;"/>
                        </g>
                        <g transform="matrix(0.447352,0,0,0.447352,4576.63,5335.93)">
                            <path d="M4117.87,584.359L4118.26,445.467L3995.69,410.082C3993.84,409.547 3992.26,408.32 3991.29,406.654C3983.11,392.62 3944.18,325.852 3935,310.104C3934.69,309.562 3934.73,308.881 3935.12,308.386C3935.51,307.892 3936.16,307.684 3936.76,307.861L4118.49,361.397L4118.64,306.771C4118.64,306.771 4136.18,317.473 4155.33,317.473C4174.48,317.473 4193.15,306.979 4193.15,306.979L4193,361.157L4373.92,307.861C4374.52,307.684 4375.17,307.892 4375.56,308.386C4375.95,308.881 4375.99,309.562 4375.68,310.104C4366.49,325.852 4327.57,392.62 4319.39,406.654C4318.41,408.32 4316.84,409.547 4314.99,410.082L4192.77,445.368L4192.38,585.249C4180.17,581.359 4167.16,579.258 4153.66,579.258C4141.24,579.258 4129.22,581.039 4117.87,584.359Z" style="fill:white;"/>
                        </g>
                    </g>
                </g>
                <g transform="matrix(0.569604,0,0,0.306249,-3242.51,2997.4)">
                    <g id="Odiance-Text" serif:id="Odiance Text">
                        <g id="Odiance-Text1" serif:id="Odiance Text">
                            <g transform="matrix(9.21889,0,0,9.21889,2027.97,-54442.6)">
                                <path d="M515.944,6629.31C519.348,6629.31 522.068,6628.13 524.111,6625.77C526.131,6623.44 527.154,6620.36 527.154,6616.52C527.154,6612.54 526.131,6609.37 524.115,6606.99C522.071,6604.58 519.35,6603.36 515.944,6603.36C512.538,6603.36 509.817,6604.58 507.773,6606.99C505.756,6609.37 504.734,6612.54 504.734,6616.52C504.734,6620.36 505.757,6623.44 507.777,6625.77C509.819,6628.13 512.54,6629.31 515.944,6629.31ZM515.944,6626.81C513.346,6626.81 511.268,6625.89 509.715,6624.03C508.132,6622.16 507.356,6619.66 507.356,6616.52C507.356,6613.3 508.135,6610.71 509.719,6608.76C511.271,6606.85 513.348,6605.9 515.944,6605.9C518.54,6605.9 520.616,6606.85 522.169,6608.76C523.753,6610.71 524.531,6613.3 524.531,6616.52C524.531,6619.66 523.756,6622.16 522.175,6624.03C520.62,6625.89 518.541,6626.81 515.944,6626.81Z" style="fill:rgb(128,0,32);"/>
                            </g>
                            <g transform="matrix(9.21889,0,0,9.21889,2027.97,-54442.6)">
                                <path d="M542.463,6612.99L542.463,6604.47C542.463,6604.2 542.687,6603.97 542.963,6603.97L544.586,6603.97C544.862,6603.97 545.086,6604.2 545.086,6604.47L545.086,6628.53C545.086,6628.81 544.862,6629.03 544.586,6629.03L542.963,6629.03C542.687,6629.03 542.463,6628.81 542.463,6628.53L542.463,6626.91C542.044,6627.44 541.533,6627.9 540.93,6628.3C539.766,6629.08 538.443,6629.48 536.959,6629.48C534.729,6629.48 532.812,6628.53 531.222,6626.62C529.659,6624.77 528.872,6622.53 528.872,6619.89C528.872,6617.22 529.657,6614.94 531.217,6613.04C532.811,6611.1 534.728,6610.14 536.959,6610.14C538.389,6610.14 539.702,6610.56 540.899,6611.41L540.91,6611.41C541.514,6611.87 542.032,6612.39 542.463,6612.99ZM536.959,6627.26C535.462,6627.26 534.194,6626.54 533.139,6625.15C532.039,6623.69 531.495,6621.93 531.495,6619.89C531.495,6617.85 532.038,6616.11 533.136,6614.68C534.194,6613.27 535.462,6612.56 536.959,6612.56C538.459,6612.56 539.741,6613.28 540.823,6614.68C541.92,6616.11 542.463,6617.85 542.463,6619.89C542.463,6621.93 541.919,6623.69 540.819,6625.15C539.741,6626.54 538.459,6627.26 536.959,6627.26Z" style="fill:rgb(128,0,32);"/>
                            </g>
                            <g transform="matrix(9.21889,0,0,9.21889,2027.97,-54442.6)">
                                <path d="M551.401,6629.03C551.677,6629.03 551.901,6628.81 551.901,6628.53L551.901,6611.25C551.901,6610.97 551.677,6610.75 551.401,6610.75L549.779,6610.75C549.502,6610.75 549.279,6610.97 549.279,6611.25L549.279,6628.53C549.279,6628.81 549.502,6629.03 549.779,6629.03L551.401,6629.03ZM549.279,6606.95C549.279,6607.22 549.502,6607.45 549.779,6607.45L551.401,6607.45C551.677,6607.45 551.901,6607.22 551.901,6606.95L551.901,6604.47C551.901,6604.2 551.677,6603.97 551.401,6603.97L549.779,6603.97C549.502,6603.97 549.279,6604.2 549.279,6604.47L549.279,6606.95Z" style="fill:rgb(128,0,32);"/>
                            </g>
                            <g transform="matrix(9.21889,0,0,9.21889,2027.97,-54442.6)">
                                <path d="M559.139,6613.53C558.39,6614.04 557.987,6614.62 557.987,6615.3L557.987,6616.2C557.987,6616.47 557.763,6616.7 557.487,6616.7L555.945,6616.7C555.669,6616.7 555.445,6616.47 555.445,6616.2C555.445,6616.2 555.445,6615.14 555.445,6615.14C555.445,6613.82 556.111,6612.69 557.498,6611.76C558.818,6610.9 560.396,6610.46 562.233,6610.46C564.121,6610.46 565.736,6610.88 567.08,6611.71C568.532,6612.61 569.224,6613.71 569.224,6614.98C569.224,6614.98 569.224,6625.45 569.224,6625.45C569.224,6626.02 569.344,6626.52 569.597,6626.93C569.785,6627.24 569.993,6627.42 570.266,6627.42C570.356,6627.42 570.438,6627.41 570.51,6627.4C570.52,6627.39 570.535,6627.39 570.543,6627.39C570.685,6627.26 570.888,6627.22 571.066,6627.3C571.253,6627.37 571.375,6627.56 571.375,6627.76L571.375,6628.53C571.375,6628.72 571.262,6628.9 571.086,6628.98C570.624,6629.2 570.041,6629.31 569.333,6629.31C568.567,6629.31 567.895,6628.99 567.329,6628.33L567.32,6628.31C567.111,6628.05 566.945,6627.77 566.822,6627.47C566.42,6627.95 565.89,6628.37 565.229,6628.73C564.105,6629.33 562.81,6629.64 561.341,6629.64C559.514,6629.64 557.965,6629.12 556.688,6628.11C555.337,6627.03 554.674,6625.73 554.674,6624.23C554.674,6622.79 555.32,6621.52 556.638,6620.44C557.875,6619.4 559.425,6618.79 561.293,6618.62C562.949,6618.46 564.303,6618.2 565.358,6617.83C565.843,6617.67 566.211,6617.49 566.453,6617.3C566.588,6617.19 566.683,6617.09 566.683,6616.97C566.683,6616.97 566.683,6615.43 566.683,6615.43C566.683,6614.69 566.254,6614.09 565.448,6613.57C564.576,6613 563.503,6612.72 562.233,6612.72C561.041,6612.72 560.009,6612.99 559.139,6613.53ZM566.683,6619.86C566.292,6620.02 565.807,6620.17 565.225,6620.29C564.261,6620.52 562.981,6620.69 561.383,6620.83C560.227,6620.93 559.253,6621.32 558.458,6622.02C557.718,6622.64 557.338,6623.37 557.338,6624.23C557.338,6625.1 557.727,6625.84 558.486,6626.43L558.499,6626.44C559.276,6627.1 560.224,6627.42 561.341,6627.42C562.652,6627.42 563.815,6626.99 564.835,6626.12C565.839,6625.28 566.455,6624.22 566.683,6622.93L566.683,6619.86Z" style="fill:rgb(128,0,32);"/>
                            </g>
                            <g transform="matrix(9.21889,0,0,9.21889,2027.97,-54442.6)">
                                <path d="M576.121,6612.51C576.535,6612.05 577.025,6611.64 577.588,6611.31C578.669,6610.64 579.865,6610.3 581.179,6610.3C583.017,6610.3 584.577,6610.9 585.861,6612.1C587.187,6613.34 587.846,6614.81 587.846,6616.52L587.846,6628.53C587.846,6628.81 587.622,6629.03 587.346,6629.03L585.723,6629.03C585.447,6629.03 585.223,6628.81 585.223,6628.53L585.223,6616.52C585.223,6615.47 584.828,6614.58 584.042,6613.84C583.245,6613.09 582.29,6612.72 581.179,6612.72C579.95,6612.72 578.856,6613.14 577.902,6613.97C576.943,6614.83 576.35,6615.9 576.121,6617.18L576.121,6628.53C576.121,6628.81 575.897,6629.03 575.621,6629.03L573.998,6629.03C573.722,6629.03 573.498,6628.81 573.498,6628.53L573.498,6611.25C573.498,6610.97 573.722,6610.75 573.998,6610.75L575.621,6610.75C575.897,6610.75 576.121,6610.97 576.121,6611.25L576.121,6612.51Z" style="fill:rgb(128,0,32);"/>
                            </g>
                            <g transform="matrix(9.21889,0,0,9.21889,2027.97,-54442.6)">
                                <path d="M599.273,6629.8C601.267,6629.8 602.97,6629.19 604.386,6627.98C605.832,6626.74 606.548,6625.24 606.548,6623.5C606.548,6623.22 606.324,6623 606.048,6623L604.344,6623C604.068,6623 603.844,6623.22 603.844,6623.5C603.844,6624.52 603.397,6625.39 602.522,6626.12C601.633,6626.88 600.55,6627.26 599.273,6627.26C597.608,6627.26 596.183,6626.54 594.99,6625.12C593.795,6623.68 593.201,6621.93 593.201,6619.89C593.201,6617.9 593.795,6616.2 594.99,6614.77C596.179,6613.41 597.606,6612.72 599.273,6612.72C600.582,6612.72 601.695,6613.09 602.609,6613.83C603.479,6614.53 603.925,6615.37 603.925,6616.36C603.925,6616.64 604.149,6616.86 604.425,6616.86L606.048,6616.86C606.324,6616.86 606.548,6616.64 606.548,6616.36C606.548,6614.65 605.833,6613.16 604.386,6611.92C602.966,6610.74 601.265,6610.14 599.273,6610.14C596.855,6610.14 594.795,6611.1 593.096,6613.03C591.42,6614.93 590.578,6617.22 590.578,6619.89C590.578,6622.61 591.419,6624.94 593.094,6626.87C594.793,6628.83 596.854,6629.8 599.273,6629.8Z" style="fill:rgb(128,0,32);"/>
                            </g>
                            <g transform="matrix(9.21889,0,0,9.21889,2027.97,-54442.6)">
                                <path d="M610.654,6620.39C610.726,6622.38 611.234,6623.99 612.201,6625.22C613.212,6626.5 614.556,6627.14 616.231,6627.14C617.508,6627.14 618.661,6626.8 619.686,6626.12C620.727,6625.43 621.448,6624.53 621.845,6623.41C621.916,6623.21 622.105,6623.08 622.316,6623.08L623.939,6623.08C624.086,6623.08 624.226,6623.15 624.321,6623.26C624.416,6623.37 624.457,6623.52 624.432,6623.66C624.14,6625.39 623.212,6626.82 621.635,6627.96C620.091,6629.08 618.29,6629.64 616.231,6629.64C613.745,6629.64 611.752,6628.74 610.247,6626.94C608.773,6625.15 608.023,6622.81 608.023,6619.89C608.023,6616.97 608.773,6614.62 610.249,6612.83C611.752,6611.04 613.745,6610.14 616.231,6610.14C618.712,6610.14 620.699,6610.97 622.199,6612.61C623.683,6614.24 624.439,6616.41 624.439,6619.12L624.439,6619.89C624.439,6620.16 624.215,6620.39 623.939,6620.39L610.654,6620.39ZM621.816,6617.76C621.688,6616.3 621.091,6615.06 620.033,6614.05C618.939,6613.06 617.672,6612.56 616.231,6612.56C614.794,6612.56 613.544,6613.07 612.479,6614.08C611.403,6615.11 610.794,6616.36 610.653,6617.85L621.816,6617.85L621.816,6617.76Z" style="fill:rgb(128,0,32);"/>
                            </g>
                        </g>
                    </g>
                </g>
            </g>
        </g>
    </g>
</svg>
